<svg xmlns="http://www.w3.org/2000/svg" height="24" viewBox="0 0 24 24" width="24">
    <path d="M0,0h24v24H0V0z" fill="none" />
    <path d="M12,21.1C5.4,15.2,1.5,11.7,1.5,7c0-0.2,0-0.4,0-0.6c-0.6,0.9-1,2-1,3.2c0,3.8,3.4,6.9,10,12.8L12,21.1z" />
    <path d="M18,3.6c-1.5,0-3,1-3.6,2.4h-1.9C12,4.6,10.5,3.6,9,3.6c-2,0-3.5,1.5-3.5,3.5
	c0,2.9,3.1,5.7,7.9,10l0.1,0.1l0.1-0.1c4.8-4.3,7.9-7.2,7.9-10C21.5,5.1,20,3.6,18,3.6z" opacity=".3" />
    <path d="M18,1.6c-1.7,0-3.4,0.8-4.5,2.1C12.4,2.4,10.7,1.6,9,1.6C5.9,1.6,3.5,4,3.5,7.1c0,3.8,3.4,6.9,8.6,11.5l1.4,1.3l1.4-1.3
	c5.2-4.7,8.6-7.8,8.6-11.5C23.5,4,21.1,1.6,18,1.6z M13.6,17.2l-0.1,0.1l-0.1-0.1c-4.8-4.3-7.9-7.2-7.9-10c0-2,1.5-3.5,3.5-3.5
	c1.5,0,3,1,3.6,2.4h1.9c0.5-1.4,2-2.4,3.6-2.4c2,0,3.5,1.5,3.5,3.5C21.5,10,18.4,12.9,13.6,17.2z" />
</svg>