<?xml version="1.0" encoding="utf-8"?>
<!-- Generator: Adobe Illustrator 25.0.1, SVG Export Plug-In . SVG Version: 6.00 Build 0)  -->
<svg version="1.1" id="Layer_1" xmlns="http://www.w3.org/2000/svg" xmlns:xlink="http://www.w3.org/1999/xlink" x="0px" y="0px"
	 width="24px" height="24px" viewBox="0 0 24 24" enable-background="new 0 0 24 24" xml:space="preserve">
<path fill="none" d="M0,0h24v24H0V0z"/>
<path d="M21,8H3V6h18V8z M18,11H6v2h12V11z M14,17.116V16h-4v2h3.115L14,17.116z M21.04,13.13c0.14,0,0.27,0.06,0.38,0.17l1.28,1.28
	c0.22,0.21,0.22,0.56,0,0.77l-1,1l-2.05-2.05l1-1C20.76,13.19,20.9,13.13,21.04,13.13 M19.07,14.88l2.05,2.05L15.06,23H13v-2.06
	L19.07,14.88"/>
</svg>
