<svg id="Layer_1" data-name="Layer 1" xmlns="http://www.w3.org/2000/svg" viewBox="0 0 24 24"><path d="M0,0H24m0,24H0" fill="none"/><path d="M9.28418,6,7.30438,4H18.95a.99777.99777,0,0,1,.79,1.61c-1.37195,1.75909-3.52557,4.53436-4.76782,6.1361l-1.40943-1.42382L17,6ZM22,21.5l-8-8.08167v-.04107l-1.58966-1.6059-.01813.02283L8.37476,7.73572,8.212,7.53027,4.75763,4.04059c-.01019.00293-.01849.009-.02857.01227L2.4,1.7,1.1,3,6.34009,8.29358C8.14319,10.6106,10,13,10,13v6a1.003,1.003,0,0,0,1,1h2a1.003,1.003,0,0,0,1-1V16.03162L20.7,22.8Z"/><path d="M0,0H24V24H0Z" fill="none"/><polygon points="13.563 10.322 17 6 9.284 6 13.563 10.322" opacity="0.3" style="isolation:isolate"/></svg>