<svg version="1.1" xmlns="http://www.w3.org/2000/svg" width="24px" height="24px" viewBox="0 0 24 24">
    <path fill="none" d="M0,0h24v24H0V0z" />
    <path opacity="0.3" d="M8,17h6c1.1,0,2-0.9,2-2V7H6v8C6,16.1,6.9,17,8,17z" />
    <path d="M4,15c0,2.2,1.8,4,4,4h6c2.2,0,4-1.8,4-4v-3h2c1.1,0,2-0.9,2-2V7c0-1.1-0.9-2-2-2H4V15z M18,7h2v3h-2V7z M6,7h10v8
		c0,1.1-0.9,2-2,2H8c-1.1,0-2-0.9-2-2V7z" />
    <path d="M6.9,10.6c0,0.6,0.2,1.1,0.6,1.4l3.5,3.5l3.5-3.5c0.4-0.4,0.6-0.9,0.6-1.4c0-1.1-0.9-2.1-2.1-2.1c-0.6,0-1.1,0.2-1.4,0.6
		L11,9.7l-0.6-0.6C10,8.7,9.5,8.5,8.9,8.5C7.8,8.5,6.9,9.4,6.9,10.6z" />
</svg>