<svg version="1.1" xmlns="http://www.w3.org/2000/svg"
	 width="24px" height="24px" viewBox="0 0 24 24">
<path fill="none" d="M0,0h24v24H0V0z"/>
<path opacity=".3" d="M11,18v1.9c-3.9-0.5-7-3.9-7-7.9c0-0.6,0.1-1.2,0.2-1.8L9,15v1C9,17.1,9.9,18,11,18z M15,13v3h0
	c0.9-1.2,2.3-2,4-2c0.2,0,0.5,0,0.7,0.1c0.2-0.7,0.3-1.4,0.3-2.1c0-3.3-2.1-6.2-5-7.4V5c0,1.1-0.9,2-2,2h-2v2c0,0.5-0.5,1-1,1H8v2h6
	C14.5,12,15,12.5,15,13z"/>
<path d="M14,19c0-1.1,0.4-2.2,1-3h0v-3c0-0.5-0.5-1-1-1H8v-2h2c0.5,0,1-0.5,1-1V7h2c1.1,0,2-0.9,2-2V4.6c2.9,1.2,5,4.1,5,7.4
	c0,0.7-0.1,1.4-0.3,2.1c0.7,0.1,1.3,0.3,1.9,0.7C21.9,13.9,22,13,22,12c0-5.5-4.5-10-10-10S2,6.5,2,12s4.5,10,10,10
	c1,0,1.9-0.1,2.8-0.4C14.3,20.8,14,20,14,19z M11,19.9c-3.9-0.5-7-3.9-7-7.9c0-0.6,0.1-1.2,0.2-1.8L9,15v1c0,1.1,0.9,2,2,2V19.9z
	 M22,20h-2v2h-2v-2h-2v-2h2v-2h2v2h2V20z"/>
</svg>
