<?xml version="1.0" encoding="utf-8"?>
<!-- Generator: Adobe Illustrator 25.1.0, SVG Export Plug-In . SVG Version: 6.00 Build 0)  -->
<svg version="1.1" id="Layer_1" xmlns="http://www.w3.org/2000/svg" xmlns:xlink="http://www.w3.org/1999/xlink" x="0px" y="0px"
	 width="24px" height="24px" viewBox="0 0 24 24" enable-background="new 0 0 24 24" xml:space="preserve">
<rect fill="none" width="24" height="24"/>
<path d="M20.92,12h-3.51l2.48,2.5c-0.19,0.25-0.39,0.5-0.65,0.74C19,15.5,18.75,15.7,18.5,15.89L16,13.41v0.06L12.54,10h0.05
	l-2.48-2.5C10.3,7.25,10.5,7,10.76,6.76C11,6.5,11.25,6.3,11.5,6.11L14,8.59V5.08C14.33,5.03,14.66,5,15,5s0.67,0.03,1,0.08v3.51
	l2.5-2.48C19,6.5,19.5,7,19.89,7.5L17.41,10h3.51c0.05,0.33,0.08,0.66,0.08,1S20.97,11.67,20.92,12z M16,16.01l-2-2v0l-0.3-0.3l0,0
	l-1.41-1.41l0,0l-0.3-0.3h0l-1.74-1.74L4.14,4.14L2.86,5.41l6.19,6.19c0.01,0.13,0.01,0.27,0.03,0.4h0.37l1.58,1.58l-0.91,0.92
	c0.39,0.5,0.89,1,1.39,1.39l0.92-0.91L14,16.56v0.36c0.13,0.02,0.26,0.02,0.39,0.03l4.19,4.19l1.27-1.27L16,16.01L16,16.01z M7,17
	c-1.1,0-2,0.9-2,2s0.9,2,2,2s2-0.9,2-2S8.1,17,7,17z"/>
</svg>
