<?xml version="1.0" encoding="utf-8"?>
<!-- Generator: Adobe Illustrator 25.2.3, SVG Export Plug-In . SVG Version: 6.00 Build 0)  -->
<svg version="1.1" id="Layer_1" xmlns="http://www.w3.org/2000/svg" xmlns:xlink="http://www.w3.org/1999/xlink" x="0px" y="0px"
	 width="24px" height="24px" viewBox="0 0 24 24" enable-background="new 0 0 24 24" xml:space="preserve">
<path fill="none" d="M0,0h24v24H0V0z"/>
<path opacity="0.3" enable-background="new    " d="M20.7,11l-1.4,5.1L14.2,11H20.7z M12,17c-1.1,0-2-0.9-2-2c0-0.8,0.5-1.6,1.3-1.8
	L9.1,11H3.3l2.2,8h11.6l-3.3-3.3C13.6,16.5,12.8,17,12,17z"/>
<path d="M2.4,1.7L1.1,3l5.8,5.8L6.8,9H2c-0.5,0-1,0.4-1,1c0,0.1,0,0.2,0,0.3l2.5,9.3c0.2,0.8,1,1.5,1.9,1.5h13c0.2,0,0.4,0,0.5-0.1
	l1.8,1.8l1.3-1.3L2.4,1.7 M5.5,19l-2.2-8h5.8l2.2,2.1c-0.8,0.3-1.3,1-1.3,1.9c0,1.1,0.9,2,2,2c0.8,0,1.6-0.5,1.9-1.3l3.3,3.3H5.5
	 M23,10l0,0.3l-2,7.5l-1.6-1.6l1.4-5.1h-6.5l-2-2h2.6L12,4.8l-1.6,2.4L9,5.8l2.2-3.3C11.4,2.2,11.7,2,12,2s0.6,0.2,0.8,0.4L17.2,9
	H22C22.5,9,23,9.4,23,10z"/>
</svg>
