<svg xmlns="http://www.w3.org/2000/svg" xmlns:xlink="http://www.w3.org/1999/xlink" viewBox="0 0 176 176"><defs><clipPath id="clip-path" transform="translate(-8 -8)"><path d="M8,8V184H184V8Zm96.94,161.93a6.9,6.9,0,0,1-4.49.37,7,7,0,0,1-5,.52C29.82,152.54-5.37,84.91,40.93,52.16c.46-.32.93-.64,1.41-.95A25.35,25.35,0,0,1,28,40c12.75-14.63,50-12.43,64.92,3.92l1.37.49a123.16,123.16,0,0,1-2.14-13.33,8.67,8.67,0,0,1,2.41-7c2.18-2.14,4.8-2.24,7.25.53a3.9,3.9,0,0,1-.28,5.3c-4.37,4.5-2.46,10.63-1.68,16.76a80.46,80.46,0,0,1,19.51-3.18c15.75-.72,31.18,5.67,41,18C184.47,92,166,143.27,104.94,169.93Z" fill="none"/></clipPath><clipPath id="clip-path-2" transform="translate(-8 -8)"><path d="M8,8V184H184V8Zm96.94,161.93a6.9,6.9,0,0,1-4.49.37,7,7,0,0,1-5,.52C29.82,152.54-5.37,84.91,40.93,52.16a60.46,60.46,0,0,1,32-11,51.78,51.78,0,0,1,21.38,3.24,123.16,123.16,0,0,1-2.14-13.33,8.67,8.67,0,0,1,2.41-7c2.18-2.14,4.8-2.24,7.25.53a3.9,3.9,0,0,1-.28,5.3c-4.37,4.5-2.46,10.63-1.68,16.76a80.46,80.46,0,0,1,19.51-3.18c15.75-.72,31.18,5.67,41,18C184.47,92,166,143.27,104.94,169.93Z" fill="none"/></clipPath><clipPath id="clip-path-3" transform="translate(-8 -8)"><path d="M8,8V184H184V8Zm96.94,161.93a6.9,6.9,0,0,1-4.49.37,7,7,0,0,1-5,.52C29.82,152.54-5.37,84.91,40.93,52.16a60.46,60.46,0,0,1,32-11c10.28-.48,19.14,1.61,26.54,5.66a79.14,79.14,0,0,1,19.91-3.31c15.75-.72,31.18,5.67,41,18C184.47,92,166,143.27,104.94,169.93Z" fill="none"/></clipPath><clipPath id="clip-path-4" transform="translate(-8 -8)"><path d="M8,8V184H184V8Zm94.89,160.25a7,7,0,0,1-7.48,2.57C29.82,152.54-5.37,84.91,40.93,52.16a60.46,60.46,0,0,1,32-11C129.55,38.53,143.38,113.5,102.89,168.25Z" fill="none"/></clipPath></defs><g id="Area"><rect width="176" height="176" fill="none"/></g><g id="Background"><g clip-path="url(#clip-path)"><path d="M125.19,35.28h-.12c-1.3,0-2.6,0-3.87.12l.06,1c1.29-.08,2.61-.12,3.93-.12v-1Zm-8,.51c-.66.09-1.32.2-2,.31h-.82l-1.14.23.21,1c1.24-.27,2.53-.5,3.86-.67l-.14-1Zm-7.8,1.72a32.81,32.81,0,0,0-3.73,1.42l.41.91a33.27,33.27,0,0,1,3.62-1.38l-.3-1Zm-7.24,3.34L102,41h-.11a19.66,19.66,0,0,0-2.61,2.13h0l0,0h0l0,0h-.09l.71.7a17.6,17.6,0,0,1,2.93-2.39l-.55-.84Zm-5.49,5.71c-.06.11-.12.22-.17.33h0v0h-.14v0h0v0h0v0h0l0,0h0l0,0h0l0,.05h0l0,.05h0v0h0v0h0v0h0v0h0v0h.09l0,0h.1l0,0h.08l.05,0h.07l.06,0h.07l.05,0h.06l.09.06h0l.07,0H97l.09.06h0l.08,0h0l.08,0h0l.07,0h.06l0,0h.08l0,0h.21l0,0h.15l.51-.86-1.3-.79a6.36,6.36,0,0,1,.3-.58l-.88-.48ZM102,50.33l-.46.89h.08c.82.43,1.64.84,2.48,1.24h0l0,0h0l0,0h.22l.73.34.42-.91c-1.2-.55-2.39-1.13-3.55-1.74Zm7.18,3.28-.37.93.75.29h.52l0,0h0c.8.3,1.61.59,2.43.86l.32-.94c-1.25-.42-2.5-.88-3.71-1.36Zm7.48,2.52-.27,1,.33.09h.37l.06,0h0c.64.17,1.28.34,1.93.49h0l.06,0h.42l.67.15.22-1c-1.28-.29-2.57-.62-3.83-1Zm7.7,1.75-.17,1c1.31.23,2.63.43,4,.59l.12-1c-1.3-.16-2.62-.36-3.91-.58Zm7.84,1-.08,1c1.33.11,2.66.17,4,.21l0-1c-1.32,0-2.64-.1-4-.2Zm11.85,0c-1.31.09-2.64.15-4,.17l0,1q2,0,4-.18l-.06-1Zm7.84-.93c-1.29.21-2.61.4-3.91.56l.12,1q2-.24,4-.57l-.17-1Zm7.72-1.69c-1.27.34-2.56.66-3.84.94l.21,1,1.08-.24h.71l.07,0h0l1-.25h0l.07,0h.36l.58-.15-.26-1ZM163,52.45l-.93.38a14.7,14.7,0,0,1,.9,3.32l.67-.1h0l-.67.1.67-.1,0,.05.15-.05h0l.05,0h0v0h0v0h0a15.83,15.83,0,0,0-.93-3.35ZM158.48,46l-.69.72a19.46,19.46,0,0,1,2.5,2.87l.82-.58a20.63,20.63,0,0,0-2.63-3ZM152,41.34l-.47.88a31.36,31.36,0,0,1,3.31,2l.57-.82A31,31,0,0,0,152,41.34Zm-7.36-3.1-.31.95c1.27.41,2.51.87,3.68,1.36l.38-.92c-1.21-.51-2.46-1-3.75-1.39Zm-7.76-1.93-.18,1c1.31.23,2.6.51,3.85.82l.24-1c-1.28-.32-2.59-.6-3.91-.84Zm-7.94-.93-.06,1c1.31.07,2.63.19,3.93.34l.12-1c-1.33-.16-2.66-.27-4-.35Z" transform="translate(-8 -8)" fill="#bdbdbd"/></g><g clip-path="url(#clip-path-2)"><path d="M55.92,30.22H54.17c-.76,0-1.5.06-2.25.11l.07,1c1.29-.08,2.61-.13,3.93-.13v-1Zm-8,.54c-1.29.19-2.55.41-3.78.69H44l.22,1c1.24-.27,2.54-.51,3.85-.69l-.14-1Zm-7.79,1.77-.18.06h-.12l-.05,0h-.18l-.1,0h-.06c-1.05.37-2.06.77-3,1.21l.42.91a34.94,34.94,0,0,1,3.62-1.4l-.31-.95ZM32.9,35.86c-.3.19-.59.39-.88.59h0l-.07,0h0l0,0h0l0,0H31.4l0,0h-.12l0,0h0l0,0h0l0,0h0l0,0h0l0,0h0l0,0h0l0,0h0l0,0h0l0,0h0l0,0h0l0,0h-.18l0,0h-.05l0,0H30l0,0h0l0,0h0l0,0h0l0,0h0l0,0,.67.74a22.53,22.53,0,0,1,3.05-2.3l-.53-.85Zm-3.23,4.89-.83.57h0c.38.56.77,1.09,1.18,1.59h0v0h0l.1.12h.14l0,0h.15l.07.08h.07c.23.27.47.53.71.78l.72-.69a24.35,24.35,0,0,1-2.4-3Zm5.26,5.55-.6.79a24.67,24.67,0,0,0,3.37,2.15l.47-.88a24.77,24.77,0,0,1-3.24-2.06Zm6.76,3.63-.34.94.93.33h0l.35.11h0l1.08.33h0l.3.08h.11l.23.06h.21l.09,0h.28L45,52h.15l.24-1a33,33,0,0,1-3.72-1.12Zm7.55,1.85-.14,1,.87.12h.48c.71.09,1.44.15,2.18.21h.21l.24,0,.07-1c-1.35-.09-2.66-.22-3.91-.4ZM61,52.24c-1.21.06-2.4.08-3.53.08h-.42v1h1.35c.87,0,1.75,0,2.65-.08l0-1Zm7.9-.64c-1.35.15-2.68.29-3.94.39l.08,1c1.31-.11,2.64-.24,4-.4l-.12-1Zm7.88-1.1c-1.36.22-2.68.42-3.93.59l.14,1c1.31-.18,2.63-.38,4-.59l-.16-1Zm7.86-1.37c-1.31.25-2.62.48-3.93.71l.18,1,.12,0h.08l2.18-.39h.57l.49-.09h.32l.17,0-.18-1Zm7.86-1.49-1.13.22-2.8.54.18,1,2.42-.46.39-.08.69-.13.43-.08-.18-1Zm.72-3.38-.75.66A25.31,25.31,0,0,1,94.81,48l.85-.54h0a26.07,26.07,0,0,0-2.41-3.18Zm-6-5.25-.57.82a34.28,34.28,0,0,1,3.08,2.37l.65-.75c-.32-.28-.64-.55-1-.82h0l0,0h0l0,0h0l0,0h0l0,0h-.39l0,0h0l0,0h0l0,0h0c-.5-.38-1-.75-1.54-1.11Zm-7-3.86-.4.92c1.21.53,2.39,1.12,3.51,1.73l.48-.88c-1.16-.63-2.36-1.22-3.59-1.77Zm-7.53-2.67-.27,1c1.27.35,2.53.75,3.75,1.17l.33-.94-.91-.31h0l0,0h-.31l-2-.61h-.56Zm-7.83-1.62-.14,1c1.3.19,2.6.41,3.87.68l.21-1c-1.31-.27-2.62-.5-3.94-.69Zm-8-.63,0,1c1.3,0,2.62.08,3.93.19l.08-1c-1.33-.1-2.67-.17-4-.19Z" transform="translate(-8 -8)" fill="#bdbdbd"/></g><g clip-path="url(#clip-path-3)"><path d="M97.92,22.53a4.8,4.8,0,0,0-3.36,1.58h0a.47.47,0,0,0-.1.1l.71.7.12-.12a3.84,3.84,0,0,1,2.66-1.29v-1Zm-5.45,5.15a4.39,4.39,0,0,0-.13.52h0l0,.05h0v0h0v0h0v0h0v0h0v0h0v0h0v0h0v0h0v0h0v0h0v0h0v.05h0s0,.08,0,.12h0a10.09,10.09,0,0,0,0,1.1h0v.05h0v0h0v0h0c0,.19,0,.37,0,.56l1-.09c0-.19,0-.37,0-.56a8.3,8.3,0,0,1,.28-3l-1-.28Zm1.22,7.79-1,.14.12.82h0v0h0v0h0v0h0v0h0v0h0q.06.47.15.93h0v0h0v0h0v0h0v0h0v0h0v0h0c.09.55.19,1.1.29,1.64l1-.18c-.25-1.38-.46-2.7-.64-3.91Zm1.39,7.82-1,.2c.24,1.18.47,2.29.69,3.3,0,.21.09.41.14.61l1-.21c-.3-1.32-.57-2.63-.83-3.9ZM97.61,49l-1.89,1.89L96,52h0l.83-.83h0l1.49-1.49L97.61,49Zm1.61-6.54-1,.15L98.44,44c.13.85.27,1.7.38,2.55l1-.13c0-.18,0-.35-.07-.53h0v0h0v0h0v0h0l0-.18h0v-.08h0v-.08h0v0h0v0h0v0h0v0h0v0h0v0h0v0h0v0h0v0h0v0h0c0-.35-.11-.7-.16-1l0-.1c-.06-.42-.13-.85-.19-1.28ZM98.1,34.26a15.71,15.71,0,0,0-.32,4.25l1,0c0-.14,0-.27,0-.41h0v0h0v0h0v0h0v0h0v0h0v0h0v0h0v0h0v0h0v0h0v0h0v0h0v0h0v0h0v0h0v0h0v0h0v0h0v0h0v0h0v0h0v0h0v0h0v0h0v0h0v0h0v0h0v0h0v0h0v0h0v0H99c0-.21.07-.41.12-.62l-1-.22Zm3.61-6.88a3.2,3.2,0,0,1-.9,1.86,12,12,0,0,0-.88,1l.8.6a9.65,9.65,0,0,1,.8-.93h.35v0h.52v0h.09v0h0v0h0v0h0v-.05h0a3.53,3.53,0,0,0,.1-.55l-1-.11Zm-3.79-4.85h0v1h0a3.89,3.89,0,0,1,2.57,1.18l.68-.73A4.86,4.86,0,0,0,98,22.53h-.07Z" transform="translate(-8 -8)" fill="#bdbdbd"/></g><g clip-path="url(#clip-path-4)"><path d="M121.77,43.47c-.8,0-1.6,0-2.41.05h-.47l-1.12.06.06,1,1.58-.09c.78,0,1.58-.05,2.36-.05v-1Zm-8,.47-.28,0h-1.64l-.28,0h-.94l-.82.13.15,1c1.28-.19,2.59-.36,3.92-.5l-.11-1Zm-7.9,1.22-1.4.31h-.69l-.12,0h0l-1,.24h0l-.08,0h0l0,0h-.47l-.1,0,.26,1c1.24-.33,2.53-.64,3.84-.91l-.21-1Zm-7.72,2.07c-.83.28-1.64.57-2.44.88h0l-.08,0h-.54l0,0h0l-.63.26.38.92c1.19-.49,2.43-.95,3.68-1.37l-.31-1Zm-7.39,3.05h0l-.08.05H90.6l-.09,0h0c-1.11.56-2.19,1.16-3.23,1.78l.52.86c1.1-.66,2.26-1.3,3.44-1.89l-.45-.89Zm-6.84,4.13-.65.48h0l0,0h-.15v0h-.16l0,0h0l0,0h0l0,0h0c-.52.4-1,.8-1.51,1.21h0l0,0h0l0,0h0l0,0h0l0,0h0l0,0h0l0,0h0l0,0h0l0,0h0l0,0H80.9l0,0h0l-.07.07.65.75c1-.84,2-1.66,3.06-2.43l-.58-.81Zm-6,5.25c-.92,1-1.8,2-2.62,3l.79.61c.8-1,1.66-2,2.56-2.94l-.73-.69ZM73,65.93l-.08.12h0l-.08.12h0v0h0v0h0v0h0v0h0v0h0v0h0v0h0v0h0v0h0v0h0v0h0v0h0v0h0l0,0h0v0h0v0h0v0h0v0h0v0h0v0h0v0h0l0,0h0v0h0v0h0l0,0h0v0h0v0h0v0h0v0h0l0,0h0v0h0l0,0h0l0,0h0v0h0l0,0h0v0h0l0,0h0v0h0v0h0l0,0h0v0h0l0,0h0v0h0v0h0l0,0h0v0h0l0,0h0v0h0l0,0h0l0,0h0c-.33.58-.65,1.16-1,1.76l.89.46c.6-1.16,1.26-2.29,2-3.38L73,65.93ZM69.26,73c-.12.3-.24.6-.35.89h0v0h0v0h0v0h0v0h0v0h0v0h0v0h0v0h0v0h0v0h0v0h0v0h0v0h0c-.31.81-.59,1.63-.86,2.47l1,.3c.39-1.25.84-2.49,1.33-3.68L69.26,73Zm-2.4,7.62c-.17.74-.33,1.48-.46,2.24h0v0h0v0h0v0h0v0h0v0h0v0h0v0h0v0h0v0h0v0h0v0h0v0h0v0h0v0h0v0h0v0h0v0h0v0h0l-.18,1.12,1,.15c.2-1.3.44-2.6.73-3.86l-1-.22Zm-1.21,7.9c-.11,1.32-.17,2.64-.19,4h1c0-1.32.08-2.64.19-3.93l-1-.08Zm.86,8-1,0,0,.63h0v0h0v0h0v0h0v0h0v0h0v0h0v0h0v0h0v0h0v0h0v0h0v.06h0c.06,1,.13,1.91.22,2.88l1-.1c-.13-1.32-.22-2.65-.27-3.94Zm.75,7.86-1,.15c.17,1.13.36,2.28.58,3.44h0V108h0v0h0v0h0v0h0v0h0v0h0v0h0v0h0v.06h0l0,.11,1-.19c-.26-1.31-.48-2.62-.67-3.9Zm1.51,7.77-1,.23c0,.22.11.45.16.67h0l0,0h0v0h0v0h0v0h0v0h0v0h0v0h0l0,.06h0c.06.25.12.5.19.75h0l0,.06h0v.05h0l0,0h0v0h0l0,0h0v0h0v0h0v0h0v0h0v0h0v0h0v0h0v0h0v.05h0l0,0h0c.12.46.25.92.38,1.39l1-.28c-.36-1.27-.7-2.56-1-3.82Zm2.15,7.61L70,120c.33,1,.68,2,1,3.07h0l0,.06h0v0h0v0h0v0h0v0h0v0h0l0,0h0v0h0l.14.41.94-.35c-.45-1.25-.88-2.51-1.29-3.75Zm2.71,7.46-.93.37c.06.14.11.27.16.4h0v0h0v0h0v0h0v0h0v0h0c.42,1,.85,2.07,1.31,3.11l.92-.4c-.54-1.22-1-2.45-1.54-3.66Zm3.18,7.27-.9.43.18.39h0l0,.06h0v0h0v0h0v0h0v0h0c.41.87.84,1.73,1.28,2.61h0v0h0l0,0h0v0h0l.13.25.89-.45c-.6-1.19-1.19-2.39-1.75-3.57Zm3.6,7.09-.88.47.11.22h0v0h0l0,0h0v0h0v0h0c.33.62.67,1.23,1,1.85h0l0,.06h0v0h0l0,0h0v0h0v0h0l.61,1.07.86-.5c-.66-1.15-1.31-2.32-1.93-3.47Zm4,6.89-.86.52h0v0h0v0h0l0,0h0v0h0v0h0l0,.07h0v0h0v0h0l0,0h0v0h0l0,0h0v0h0v0h0v0h0v0h0l0,0h0v0h0v0h0v0h0l0,0v0h0v0h0v0h0v0h0v0h0l0,0h0v0h0v0h0l0,0h0v0h0v0h0l0,.06h0v0h0v0h0l.08.13h0l0,0h0l1.24,2,.85-.54c-.72-1.12-1.43-2.26-2.1-3.38Zm4.28,6.71-.83.56c.73,1.09,1.48,2.19,2.26,3.29l.81-.57c-.76-1.09-1.51-2.19-2.24-3.28Zm4.56,6.51-.81.59c.32.43.62.85.94,1.27h0v0h0v0h0v0h0l0,0h0l1.36,1.8.8-.6c-.81-1.06-1.61-2.14-2.39-3.2ZM98,167.84l-.69.73a6.72,6.72,0,0,0,1.12.87h0l0,0h.35a7.15,7.15,0,0,0,1.89.69h.08l.19-1a6,6,0,0,1-3-1.56Zm10-.37c-1.13.53-2.28,1.05-3.43,1.55l-.17.07.37.93.06,0H105l2-.91h0l0,0h0l0,0h0l0,0h0l0,0h.05l0,0h.24l0,0h0l.77-.36-.42-.91Zm7.12-3.52c-1.16.61-2.35,1.22-3.53,1.81l.44.89c1-.47,1.89-1,2.82-1.43h0l0,0h0l0,0h0l0,0H115l0,0h.05l0,0h0l.08,0h0l.3-.16-.47-.88Zm6.93-3.89c-1.12.67-2.28,1.34-3.44,2l.49.87,1.84-1h0l.07,0h0l0,0h.14l0,0h0l0,0h0l0,0h0c.39-.23.79-.46,1.17-.7l-.51-.85Zm6.7-4.28c-1.09.74-2.2,1.48-3.32,2.19l.54.84h0l.07,0h0l2-1.28h0l0,0h0l.07,0h0l0,0h0l0,0h0l0,0h0l0,0h0l0,0h0l0,0h.07l0,0h0l0,0h0l0,0h0l.08-.05h0l0,0h0l.7-.47-.56-.83Zm6.42-4.66c-1,.8-2.11,1.6-3.18,2.38l.59.81,0,0h0l0,0h0l0,0h0l0,0h0l0,0h0l0,0h0l0,0h0l0,0h0l0,0h0l0,0h0l0,0h0l0,0h0l0,0h0l0,0h0l0,0h0l0,0h0l0,0h0l0,0h0l0,0h0l0,0h0l0,0h0l0,0h0l.06-.05h0l0,0h0l.06,0h0l.07-.05h0l0,0h0l.07-.05h0l0,0h0l.07-.05h0l0,0h0l.07-.05h0l0,0h0l.07,0h0l.1-.07h0l.1-.08h0l.1-.07h0l.1-.08h0l.13-.1h0l.07-.05h0l0,0h0l.07-.05h0l0,0h0l.06-.05h0l0,0h0l.06,0h0l.06,0h0l0,0h0l0,0h.06l0,0,0,0h0v0h0l.07-.06h0l.44-.34-.61-.79Zm6.1-5.07c-1,.87-2,1.74-3,2.59l.64.77h0l0,0h0l0,0h0l0,0h0l0,0h0l0,0h0l0,0h0l.09-.07h0c.94-.78,1.85-1.57,2.75-2.37l-.66-.75Zm5.72-5.47c-.91.93-1.85,1.87-2.81,2.79l.69.72.08-.08h0l.94-.91h0l0,0h0l0,0h0l.05,0h0l0,0h0l0,0h0l0,0h0l0,0h0l0,0h0l0,0h0l.05-.05h0v0h0l0,0h0l0,0h0v0h0v0h0l0,0h0v0h0v0h0l0,0h0v0h.06l.06-.06h0l0,0h0l.06-.06h0l0,0h0v0h0l.06-.06h0v0h0l0-.05h0v0h0l0,0v0h0l0,0h.05l0,0h0l0,0h0l0,0h0l.05-.06h0l0,0h0l.25-.26-.72-.69Zm5.29-5.9c-.83,1-1.7,2-2.59,3l.75.67c.25-.28.49-.56.74-.83h0l0,0h0l0,0h0l0,0h0l.05-.05h0l0,0h0l0,0h0l0,0h0l0,0h0l0,0h0l0,0h0v0h0v0h0l0,0h0l0,0h0v0h0l0,0h0l0,0h0l0,0h0v0h0l0,0h0l0,0h0v0h0l0,0h0l0,0h0l0-.05h0l0,0h0l0,0h0l0,0h0l1-1.17-.77-.64Zm4.77-6.31c-.74,1.07-1.52,2.15-2.32,3.21l.8.6.08-.11h0l0,0h0l0,0h0l0,0h0c.39-.52.77-1.05,1.15-1.57h0l0,0h0l.1-.14h0l0,0h0l0,0h0l0,0h0l0,0h0l0,0h0l0,0h0l0,0h0v0h0v0h0v0h0l0,0h0l0,0h0v0h0v0h0v0h0v0h0l0-.07h0v0h0v0h0v0h0v0h0l.09-.12h0v0h0v0h0v0h0l.23-.33-.82-.57Zm4.16-6.71c-.63,1.13-1.3,2.28-2,3.4l.85.53.37-.59h0l0,0h0v0h0v0h0v0h0v0h0v0h0v0h0v0h0l.1-.16h0v0h0l0,0h0c.38-.62.74-1.25,1.1-1.88h0v0h0l0,0h0v0h0l0,0h0v0h0l0,0h0l.09-.15h0v0h0l0,0h0v0h0v0h0v0h0l-.88-.48Zm3.47-7.09c-.51,1.19-1.06,2.4-1.64,3.59l.9.44c.4-.83.79-1.66,1.15-2.48h0l0,0h0v0h0v0h0v0h0v0h0v0h0v0h0v0h0v0h0v0h0v0h0v0h0v0h0v0h0v0h0v0h0v0h0l.27-.62-.92-.39Zm2.63-7.42c-.35,1.24-.76,2.5-1.2,3.74l.94.34c.36-1,.7-2,1-3.08h0v0h0v0h0v0h0v0h0v0h0v0h0v0h0v0h0v0h0v0h0v0h0v0h0c0-.12.07-.24.11-.36l-1-.27ZM169,99.47c-.19,1.28-.43,2.58-.71,3.86l1,.22c.14-.64.28-1.29.4-1.93h0v0h0v0h0v0h0v0h0v0h0v0h0v0h0v0h0v0h0l0-.11h0v0h0v0h0v0h0v0h0v0h0v0h0v0h0v0h0v0h0v0h0v0h0v0h0v0h0v0h0l0-.12h0v0h0v0h0v0h0v0h0v0h0v0h0v0h0v0h0v0h0v0h0v0h0v0h0v0h0l0-.12h0v0h0v0h0v0h0v0h0v0h0v0h0v0h0v0h0v0h0v0h0v0h0v0h0l0-.17-1-.15Zm.62-7.83c0,1.3-.06,2.61-.17,3.92l1,.08v-.08h0v0h0v0h0v0h0v0h0v0h0v-.08h0v0h0v0h0v0h0v0h0v0h0v0h0v0h0c.08-1.14.12-2.27.13-3.4h0v0h0v0h-1Zm.41-8-1,.15c.2,1.28.35,2.59.44,3.89l1-.07c-.06-.88-.15-1.76-.26-2.63h0v0h0v0h0v0h0v0h0v0h0v0h0v0h0v0h0v0h0v0h0v0h0v0h0c0-.32-.09-.63-.14-.95Zm-1.88-7.77-1,.32c.41,1.23.77,2.49,1.08,3.76l1-.24c-.31-1.29-.68-2.58-1.1-3.84ZM165,68.57l-.88.48c.62,1.14,1.19,2.33,1.71,3.52l.92-.4a2.14,2.14,0,0,1-.1-.22h0l0,0h0c0-.06-.05-.12-.07-.17h0v0h0v0h0v0h0l-.05-.11h0v0h0l0,0h0v0h0l0-.11h0v0h0l0,0h0v0h0v0h0l-.05-.11h0v0h0v0h0v0h0l-.07-.13h0v0h0l0,0h0v0h0c-.35-.75-.73-1.5-1.13-2.24Zm-4.36-6.69-.79.62c.8,1,1.57,2.1,2.28,3.18l.83-.54-.19-.3h0l0,0h0v0h0l-.09-.14h0v0h0v0h0v0h0v0h0v0h0v0h0v0h0v0h0v0h0l0-.05h0l0,0h0v0h0v0h0l0,0h0l0,0h0v0h0l-.07-.1h0v0h0v0h0l0,0h0l0,0h0c-.46-.67-.95-1.32-1.45-2ZM155.15,56l-.67.74c1,.88,1.9,1.8,2.79,2.75l.73-.68h0l-.05,0h0l0,0h0l0,0h0v0h0v0h-.08l0,0h0l0,0h0l0,0h0l0,0h0l0,0h0l0,0h0l0,0h0l0,0h0l0,0h0l0,0h0l0,0h0l0,0h0l0,0h0l0,0h0L157.2,58h0c-.37-.38-.75-.75-1.13-1.12h0l0,0h0l0,0h0l0,0h0l0,0h0l0,0h0l0,0h0l0,0h0l0,0h0v0h0l0,0h0l0,0h0v0h-.09l0,0h0v0h0l0,0h0l0,0h0l0,0h0l-.15-.14Zm-6.36-4.83-.53.84c1.1.7,2.18,1.45,3.21,2.23l.61-.79-.54-.4h0l0,0h0l-.05,0h0l-.05,0h0l0,0h0l0,0h-.15v0H151l0,0h0l0,0h-.05l0,0h0l0,0h0l0,0h0l0,0h0l-.05,0h0l0,0h0l0,0h0c-.39-.28-.79-.55-1.19-.81h0l0,0h0l-.05,0h0l0,0h0l0,0h-.05l0,0H149l0,0h0l-.2-.12Zm-7.07-3.71-.39.92c1.2.51,2.39,1.07,3.54,1.67l.46-.88-.79-.41h0l-.06,0h0l-.06,0h0l0,0h-.08l0,0h0l0,0h-.5l-.05,0h0l-.05,0h0l0,0h0l-.06,0h0c-.57-.26-1.14-.52-1.71-.76ZM134.13,45l-.24,1c1.27.31,2.54.68,3.77,1.09l.31-1c-.49-.17-1-.32-1.48-.47h0l0,0h0l0,0h-.68l-.06,0h-.06L134.13,45Zm-7.88-1.3-.09,1c1.3.11,2.61.27,3.89.48l.16-1c-1.3-.22-2.61-.38-3.93-.5h0Zm-4.48-.19v1h.47v-1h-.48Z" transform="translate(-8 -8)" fill="#bdbdbd"/></g></g><g id="Foreground"><path d="M75.79,41.1c-1,0-1.91,0-2.88.07h0l-1.12.06.07,1L73,42.17c1,0,1.91-.07,2.84-.07v-1Zm-8,.53-1.31.19h-.13l-.26,0h-1.7l-.1,0h-.44l.19,1c1.29-.26,2.59-.48,3.88-.65l-.13-1ZM60,43.2l-1.49.43h-.07l-.19.05h-.36l-.11,0h-.31l-.17.06H57l-.11,0h-.33l-.39.14.33.94c1.23-.42,2.5-.81,3.76-1.15l-.26-1Zm-7.57,2.6-.18.07H52c-.65.28-1.3.57-1.93.87h-.29l-.06,0h-.27l-.65.33.45.89c1.16-.58,2.37-1.13,3.57-1.64l-.39-.92Zm-7.15,3.57-.59.35h-.05l0,0h-.07l0,0h-.34l0,0h-.06l0,0h0q-.7.44-1.41.9h0l0,0h0l0,0h0l0,0h0l-.12.07h0l0,0h-.13l0,0h0l0,0h0l-.31.2.56.83c1.08-.73,2.2-1.44,3.33-2.1l-.51-.86Zm-6.62,4.49c-.91.71-1.79,1.44-2.63,2.18h0l0,0h0l0,0h0l0,0h0l0,0h0l0,0h0l0,0h0l0,0h0l0,0h0v0h0l0,0h0v0h0v0h0l0,0h0l.67.75c1-.86,2-1.71,3-2.52l-.62-.79ZM32.7,59.2l-.14.14h0l-.08.09h0l0,0h0l0,0h0l-.06.07h0l-.07.07h0c-.78.83-1.53,1.68-2.24,2.55l.78.63c.81-1,1.69-2,2.6-2.93l-.72-.69Zm-5.06,6.19-.12.18h0v0h0l0,0h0c-.68,1-1.31,2-1.89,3.07l.87.49C27,68.15,27.73,67,28.47,66l-.83-.56Zm-3.92,7c-.06.15-.13.31-.2.46h0c-.47,1.08-.89,2.16-1.26,3.26l.94.32c.42-1.22.91-2.44,1.44-3.63l-.92-.41Zm-2.59,7.56c-.31,1.29-.57,2.6-.77,3.92l1,.15c.19-1.29.45-2.58.75-3.84l-1-.23Zm-1.2,7.9c0,.6-.06,1.2-.08,1.8h0v0h0v0h0v0h0v0h0v0h0v0h0v0h0v0h0v0h0v0h0v0h0v0h0v0h0v0h0v0h0v0h0v0h0v0h0v0h0v0h0v0h0v0h0v0h0v0h0v0h0v0h0v0h0v0h0v0h0v0h0v0h0v.09h0v0h0v0h0v0h0v.12h0v0h0v0h0v.79h1c0-1.32,0-2.63.09-3.92l-1-.06Zm1.14,7.89-1,.1c0,.23.05.46.08.69h0v0h0v0h0v0h0v0h0v0h0v0h0v0h0v0h0v0h0v0h0v0h0v0h0v0h0l0,.12h0c.05.47.12.93.18,1.4h0v0h0v.06h0v0h0v0h0v0h0v0h0v0h0v0h0v0h0v0h0v0h0v0h0c0,.3.09.61.15.91l1-.17c-.22-1.3-.4-2.61-.52-3.89Zm1.32,7.74-1,.24c.31,1.28.67,2.57,1.07,3.85h0l1-.3c-.39-1.26-.75-2.53-1.05-3.79ZM24.73,111l-.93.36c.39,1,.82,2.08,1.27,3.12h0l0,0h0l0,0h0v0h0v0h0v0h0v0h0v0h0v0h0v0h0l0,0h0v0h0l.07.16.92-.41c-.54-1.21-1-2.44-1.51-3.65Zm3.21,7.21-.89.45c.61,1.18,1.24,2.35,1.92,3.51l.86-.5c-.66-1.14-1.3-2.31-1.89-3.46ZM31.89,125l-.84.55h0v0h0v0h0l0,0h0v0h0v0h0l0,0h0l0,0h0c.41.63.82,1.25,1.25,1.87h0l0,0h0l0,0h0v0h0l0,0h0v0h0v0h0v0h0l0,0h0l0,0h0v0h0l0,0h0l.55.77.81-.58c-.77-1.08-1.51-2.18-2.22-3.28Zm4.58,6.45-.79.62c.72.91,1.45,1.81,2.2,2.71h0l0,0h0v0h0v0h0v0h0v0h0l0,0h0l.13.15.76-.65c-.85-1-1.7-2-2.5-3.07Zm5.12,6-.73.67.93,1h0l0,0h0v0h0l0,0h0l0,0h0l0,0h0l0,0h0l0,0h0l0,0h0l0,0h0l0,0h0l0,0h0l0,0h0l0,0h0l0,0h0l0,0h0l0,0h0l0,0h0l0,0h0v0h0l0,0h0l0,0h0l0,0h0l.07.06h0l.54.57h0l.09.09h0l0,0h0l0,0h0l0,0h0l0,0h0l0,0h0l0,0h0v0h0l0,0h0l.35.34.7-.7c-.93-.94-1.85-1.9-2.74-2.86Zm5.59,5.61-.68.73c1,.9,2,1.79,3,2.67l.66-.76c-1-.86-2-1.75-3-2.64Zm6,5.18-.62.78.45.35h0l0,0h0l0,0h0l0,0h0l0,0h0l0,0h0l1.18.92h0l0,0h0l0,0h.08l0,0h0l0,0h0l0,0h0l0,0h.16l0,0h0l0,0h0l0,0h0l0,0h0l0,0h0l.59.44.59-.8c-1.06-.79-2.11-1.6-3.14-2.42ZM59.54,153l-.57.82.88.6h0l0,0h0l0,0H60c.76.51,1.53,1,2.31,1.52l.54-.84c-1.11-.71-2.22-1.45-3.3-2.2Zm6.68,4.29-.52.86h0l0,0h0l.08,0h0l.08,0h0l1.56.91h0l.06,0h0l0,0h0l.06,0h0l0,0h0l.08,0h0l0,0h0l0,0h0l0,0h0l.06,0h0l0,0h0l0,0h0l0,0h0l0,0h0l.06,0h0l.08.05h0l.77.42.48-.87c-1.16-.64-2.31-1.3-3.44-2Zm6.94,3.82-.45.89c.94.48,1.89.95,2.85,1.4h.15l0,0h0l.08,0h0l.46.21.42-.9c-1.19-.56-2.39-1.14-3.57-1.74Zm7.19,3.36-.39.92,1.61.67h0l.06,0h.05l.06,0h0l.06,0h.33l.06,0h0l0,0h0l1.3.51L84,166c-1.23-.48-2.47-1-3.68-1.5Zm7.39,2.88-.33.94c.72.26,1.45.51,2.18.75h.28l.07,0h0l1.26.41.31-.95c-1.26-.4-2.53-.82-3.77-1.26Zm7.57,2.4-.27,1,.34.1h0a7.07,7.07,0,0,0,1.87.25h.38a7.25,7.25,0,0,0,1.32-.2l-.24-1a6,6,0,0,1-1.46.18,5.77,5.77,0,0,1-1.6-.22l-.37-.1Zm8.63-4.68c-.6.86-1.23,1.73-1.86,2.58a5.4,5.4,0,0,1-.43.52l.73.69c.13-.14.25-.29.37-.44h.14c.4-.54.79-1.08,1.18-1.63h0l0,0h0l0,0h0l0,0h0l0,0h0l0,0h0l0,0h0l0,0h0l0,0h0l0,0h0v0l0,0v0l0,0v0l0,0v0l0,0h0l0,0h0l0,0h0l.24-.35-.82-.57Zm4.35-6.64c-.69,1.12-1.4,2.25-2.12,3.35l.84.55c.73-1.12,1.44-2.25,2.13-3.38l-.85-.52Zm3.9-6.91c-.61,1.16-1.25,2.34-1.9,3.49l.87.49c.66-1.17,1.3-2.34,1.91-3.52l-.88-.46Zm3.43-7.15c-.53,1.2-1.08,2.42-1.66,3.6l.91.44c.58-1.21,1.13-2.42,1.67-3.64l-.92-.4Zm3-7.36c-.45,1.23-.92,2.48-1.42,3.7l.93.38.42-1.05h0l0-.06h0v0h0l0,0h0v0h0v0h0v0h0v0h0v0h0v0h0v0h0l0,0h0l0-.08h0c.11-.28.21-.57.32-.85h0l0-.08h0l0-.05h0v0h0l0,0h0v0h0v0h0v0h0v0h0v0h0l0-.05h0v0h0l.3-.82-.94-.34Zm2.45-7.54c-.37,1.26-.75,2.54-1.16,3.79l.95.31L121,133h0v0h0v0h0v0h0v0h0v0h0c.33-1,.64-2.07.94-3.11l-1-.27Zm1.91-7.7c-.27,1.29-.57,2.59-.89,3.87l1,.24c.17-.69.33-1.37.49-2.06h0v-.06h0v0h0v0h0v0h0v0h0v0h0v0h0v0h0v0h0v0h0v0h0c.1-.48.21-1,.31-1.43l-1-.21Zm1.34-7.8c-.17,1.29-.37,2.61-.6,3.91l1,.17c.23-1.32.43-2.64.6-4l-1-.13Zm.74-7.89c-.07,1.31-.17,2.63-.29,4l1,.09c0-.09,0-.18,0-.28h0v0h0v0h0v0h0v0h0v0h0v0h0v0h0v0h0v0h0v-.05h0c.07-.72.12-1.43.17-2.15h0v-.06h0v-.06h0v0h0v0h0v0h0v0h0v0h0v0h0v0h0v0h0v0h0v0h0v0h0v0h0v0h0v0h0v0h0v0h0v0h0v0h0v0h0v0h0v0h0v0h0v0h0v0h0v0h0v0h0v0h0v0h0v0h0l-1,0Zm1.1-7.94-1,0c0,1.3,0,2.63,0,4l1,0c0-1.35,0-2.68,0-4Zm-.61-8-1,.13c.16,1.29.3,2.61.4,3.93l1-.08c-.1-1.34-.23-2.66-.39-4Zm-1.39-7.87-1,.22c.29,1.27.55,2.57.78,3.87l1-.17c-.24-1.33-.5-2.64-.8-3.92Zm-2.22-7.68-1,.33c.44,1.22.84,2.48,1.21,3.75l1-.27c-.34-1.17-.7-2.31-1.09-3.43h0v0h0l0-.06h0v0h0v0h0v0h0v0h0v0h0v0h0v0h0v0h0v0h0Zm-3.16-7.35-.89.46c.59,1.15,1.15,2.34,1.67,3.56l.92-.4c-.45-1-.92-2.06-1.42-3.06h0v0h0v0h0v0h0v0h0v0h0v0h0v0h0v0h0v0h0l-.15-.29Zm-4.14-6.84-.81.59c.75,1,1.47,2.15,2.15,3.27l.86-.51-.36-.59h0l0,0h0v0h0l0-.08h0l0,0h0l0,0h0v0h0v0h0l0,0h0v0h0l0,0h0l0,0h0v0h0v0h0l0,0h0v0h0v0h0l0,0h0v0h0v0h0l0,0h0l0,0h0v0h0l0,0h0v0h0v0h0v0h0l0,0h0v0h0v0h0l0,0h0v0h0v0h0l0,0h0l0,0h0v0h0l0,0h0l0,0h0v0h0v0h0l0,0h0l0,0h0l0,0h0l0,0h0l0,0h0v0h0l0,0h0l-.09-.13h0c-.3-.45-.6-.9-.92-1.34Zm-5.16-6.1-.7.71c.91.91,1.8,1.88,2.65,2.88l.76-.64h0l0,0h0l0,0h0l0,0h0l0,0h0l0,0h0c-.81-.94-1.65-1.85-2.53-2.73Zm-6.13-5.12-.57.83c1.07.73,2.11,1.53,3.11,2.36l.64-.76-.38-.32h0l0,0h0l0,0h0l0,0h0l0,0h0l0,0h0l0,0h0l0,0h0c-.84-.68-1.7-1.32-2.59-1.94Zm-7-3.92-.41.91c1.19.53,2.36,1.13,3.49,1.76l.49-.87-.55-.31h0l0,0h0l0,0h0l0,0h0l0,0h-.66l0,0h-.17l0,0h-.12l0,0h0l0,0h-.06l0,0h0L97.89,46H97.8l-.14-.07h0l-.06,0h0l-1.25-.58ZM88.8,42.66l-.24,1c1.27.32,2.53.7,3.75,1.12l.32-1c-1.24-.43-2.52-.81-3.83-1.14Zm-7.87-1.33-.09,1c1.31.12,2.62.28,3.89.5l.16-1c-1.29-.22-2.62-.39-4-.51Zm-5.14-.23v1h1.12l0-1H75.79Z" transform="translate(-8 -8)" fill="#bdbdbd"/></g></svg>